<svg width="624" height="78" viewBox="0 0 624 78" fill="none" xmlns="http://www.w3.org/2000/svg">
<path d="M37.193 12.9957H75.114C88.764 12.9957 104.507 24.6398 104.507 38.987C104.507 53.3342 88.777 64.9783 75.114 64.9783H37.193C23.543 64.9783 13 53.3472 13 38.987C13 24.6268 23.543 12.9957 37.193 12.9957ZM559.273 0C541.06 0 526.5 17.4532 526.5 38.987C526.5 60.5208 541.19 77.974 559.273 77.974H611.52L624 64.9783H559C547.326 64.3675 542.243 56.6871 539.5 45.4848H611.52L624 32.4892H539.5C542.269 21.2999 547.196 13.0606 559 12.9957H611.52L624 0H559.273ZM442 0V70.5145C442 72.4379 443.235 74.3092 444.613 75.7388C445.991 77.1683 447.85 77.974 449.878 77.974L501.02 78L514.02 65.0043L455 64.9783V0.0260018L442 0ZM361.946 0C341.263 0 324.883 17.4922 324.883 39.026C324.883 60.5598 341.263 77.974 361.946 77.974L409.383 77.8181L424.32 64.9783H361.673C348.023 64.9783 337.753 53.3602 337.753 39C337.753 24.6398 348.023 12.9957 361.673 12.9957L409.63 13.2036L424.32 0H361.946ZM273 0C269.646 0 266.214 2.79409 264.29 6.27693L227.5 77.974H240.5L273 12.9957L294.983 51.9827H260.52L272.753 64.7184L301.106 64.6405L309.66 77.961L323.713 77.8441L281.112 6.27693C278.122 1.48153 276.25 0 273 0ZM130 0V77.974H143V12.9957H182C188.695 12.9957 195 19.0257 195 25.9913C195 32.957 188.695 38.987 182 38.987H149.5L194.753 77.974H214.5L182 51.9827L186.381 51.8657C196.001 51.8787 208 40.5595 208 25.9913C208 11.4232 199.069 0.181939 187.811 0H130ZM37.466 0C16.783 0 0 17.4662 0 38.987C0 60.5078 16.783 77.974 37.466 77.974H74.88C95.563 77.974 117 60.5208 117 38.987C117 17.4532 95.563 0 74.88 0H37.466Z" fill="#EF0F14"/>
</svg>
