<svg width="257" height="257" viewBox="0 0 257 257" fill="none" xmlns="http://www.w3.org/2000/svg">
<circle cx="128.5" cy="128.5" r="123.5" stroke="#E75A27" stroke-width="16"/>
<path d="M189.528 81.0023C188.147 81.0436 186.837 81.6223 185.874 82.616L104.595 164.133L71.1495 130.589C70.6598 130.078 70.0732 129.669 69.4241 129.388C68.775 129.107 68.0765 128.958 67.3694 128.951C66.6623 128.944 65.9609 129.078 65.3062 129.346C64.6516 129.614 64.0568 130.01 63.5568 130.512C63.0568 131.013 62.6616 131.61 62.3943 132.266C62.127 132.923 61.9931 133.626 62.0003 134.336C62.0075 135.045 62.1557 135.745 62.4362 136.396C62.7168 137.047 63.124 137.636 63.6341 138.127L100.838 175.439C101.834 176.439 103.186 177 104.595 177C106.005 177 107.356 176.439 108.353 175.439L193.39 90.1535C194.158 89.4048 194.682 88.4408 194.894 87.388C195.107 86.3351 194.997 85.2425 194.58 84.2532C194.162 83.264 193.457 82.4243 192.555 81.8442C191.654 81.2641 190.599 80.9707 189.528 81.0023Z" fill="#E75A27"/>
</svg>
